<svg width="1280" height="720" viewBox="0 0 1280 720" fill="none" xmlns="http://www.w3.org/2000/svg">
  <defs>
    <linearGradient id="sky" x1="0" y1="0" x2="1280" y2="720" gradientUnits="userSpaceOnUse">
      <stop stop-color="#5B1F1B"/>
      <stop offset="0.45" stop-color="#7C4528"/>
      <stop offset="1" stop-color="#241511"/>
    </linearGradient>
    <linearGradient id="panel" x1="0" y1="0" x2="1" y2="1">
      <stop stop-color="#2A1B16" stop-opacity="0.96"/>
      <stop offset="1" stop-color="#1A120F" stop-opacity="0.9"/>
    </linearGradient>
    <filter id="blur" x="-20%" y="-20%" width="140%" height="140%">
      <feGaussianBlur stdDeviation="18"/>
    </filter>
  </defs>

  <rect width="1280" height="720" fill="url(#sky)"/>
  <circle cx="1030" cy="118" r="108" fill="#F7D07A" fill-opacity="0.16" filter="url(#blur)"/>
  <rect x="104" y="118" width="1072" height="532" rx="42" fill="#1D5348" stroke="#E9C680" stroke-opacity="0.28" stroke-width="3"/>
  <rect x="152" y="156" width="976" height="448" rx="28" fill="#133530" fill-opacity="0.82" stroke="#88D1BC" stroke-opacity="0.2" stroke-width="2"/>

  <rect x="28" y="24" width="1224" height="106" rx="28" fill="url(#panel)" stroke="#F0CC88" stroke-opacity="0.28" stroke-width="2"/>
  <text x="54" y="68" fill="#F6DFB0" font-family="Georgia, serif" font-size="34" font-weight="700" letter-spacing="3">JAIPUR</text>
  <text x="56" y="99" fill="#E7C388" font-family="Trebuchet MS, sans-serif" font-size="16" font-weight="700">Responsive PixiJS table • Multiplayer + single-player bot mode • Prompt-only repo experiment</text>

  <rect x="1002" y="42" width="104" height="42" rx="14" fill="#382C28" stroke="#F3DFB1" stroke-opacity="0.4"/>
  <text x="1025" y="68" fill="#F1E1C7" font-family="Trebuchet MS, sans-serif" font-size="14" font-weight="700">Settings</text>
  <rect x="1118" y="42" width="112" height="42" rx="14" fill="#2D2420" stroke="#F3DFB1" stroke-opacity="0.22"/>
  <text x="1148" y="68" fill="#F8EBD1" font-family="Trebuchet MS, sans-serif" font-size="14" font-weight="700">Deck 31</text>

  <rect x="28" y="156" width="250" height="536" rx="28" fill="url(#panel)" stroke="#F0CC88" stroke-opacity="0.28" stroke-width="2"/>
  <text x="50" y="197" fill="#F3DDB1" font-family="Georgia, serif" font-size="24" font-weight="700">Actions</text>
  <text x="50" y="228" fill="#8CE0BF" font-family="Trebuchet MS, sans-serif" font-size="16" font-weight="700">Turn: You</text>

  <rect x="46" y="248" width="214" height="48" rx="16" fill="#DD9F32"/>
  <text x="101" y="278" fill="#24170D" font-family="Trebuchet MS, sans-serif" font-size="17" font-weight="700">New Bot Match</text>

  <rect x="46" y="308" width="214" height="48" rx="16" fill="#2C8C8A"/>
  <text x="99" y="338" fill="#F4FBFB" font-family="Trebuchet MS, sans-serif" font-size="17" font-weight="700">Take Selected</text>

  <rect x="46" y="368" width="214" height="48" rx="16" fill="#2C8C8A"/>
  <text x="104" y="398" fill="#F4FBFB" font-family="Trebuchet MS, sans-serif" font-size="17" font-weight="700">Take Camels</text>

  <rect x="46" y="428" width="214" height="48" rx="16" fill="#382C28"/>
  <text x="124" y="458" fill="#F1E1C7" font-family="Trebuchet MS, sans-serif" font-size="17" font-weight="700">Exchange</text>

  <text x="50" y="520" fill="#F3DDB1" font-family="Georgia, serif" font-size="22" font-weight="700">Sell goods</text>
  <text x="50" y="548" fill="#E2A93B" font-family="Trebuchet MS, sans-serif" font-size="18" font-weight="700">Gold</text>
  <rect x="46" y="566" width="64" height="40" rx="13" fill="#382C28"/>
  <rect x="121" y="566" width="64" height="40" rx="13" fill="#DD9F32"/>
  <rect x="196" y="566" width="64" height="40" rx="13" fill="#382C28"/>
  <text x="71" y="592" fill="#F1E1C7" font-family="Trebuchet MS, sans-serif" font-size="18" font-weight="700">&lt;</text>
  <text x="146" y="592" fill="#24170D" font-family="Trebuchet MS, sans-serif" font-size="18" font-weight="700">3</text>
  <text x="221" y="592" fill="#F1E1C7" font-family="Trebuchet MS, sans-serif" font-size="18" font-weight="700">&gt;</text>

  <rect x="46" y="622" width="214" height="46" rx="16" fill="#9F3B39"/>
  <text x="121" y="651" fill="#FFEFEA" font-family="Trebuchet MS, sans-serif" font-size="17" font-weight="700">Surrender</text>

  <rect x="298" y="156" width="686" height="536" rx="28" fill="url(#panel)" stroke="#F0CC88" stroke-opacity="0.28" stroke-width="2"/>
  <text x="322" y="198" fill="#F3DDB1" font-family="Georgia, serif" font-size="24" font-weight="700">Trading Table</text>

  <text x="322" y="240" fill="#F3DDB1" font-family="Georgia, serif" font-size="22" font-weight="700">Market</text>

  <g>
    <rect x="320" y="260" width="122" height="174" rx="22" fill="#FAF0D6" stroke="#D94F70" stroke-width="3"/>
    <rect x="456" y="260" width="122" height="174" rx="22" fill="#FAF0D6" stroke="#E2A93B" stroke-width="3"/>
    <rect x="592" y="260" width="122" height="174" rx="22" fill="#FAF0D6" stroke="#42B4D6" stroke-width="3"/>
    <rect x="728" y="260" width="122" height="174" rx="22" fill="#FAF0D6" stroke="#D86E33" stroke-width="3"/>
    <rect x="864" y="260" width="94" height="174" rx="22" fill="#FAF0D6" stroke="#C89A4B" stroke-width="3"/>
    <text x="364" y="355" fill="#D94F70" font-family="Georgia, serif" font-size="46" font-weight="700">◆</text>
    <text x="500" y="355" fill="#E2A93B" font-family="Georgia, serif" font-size="46" font-weight="700">●</text>
    <text x="636" y="355" fill="#42B4D6" font-family="Georgia, serif" font-size="46" font-weight="700">▧</text>
    <text x="772" y="355" fill="#D86E33" font-family="Georgia, serif" font-size="46" font-weight="700">✦</text>
    <text x="898" y="355" fill="#C89A4B" font-family="Georgia, serif" font-size="40" font-weight="700">♞</text>
  </g>

  <text x="322" y="480" fill="#F3DDB1" font-family="Georgia, serif" font-size="22" font-weight="700">Your Hand</text>
  <g>
    <rect x="320" y="500" width="108" height="154" rx="20" fill="#FAF0D6" stroke="#E2A93B" stroke-width="3"/>
    <rect x="440" y="500" width="108" height="154" rx="20" fill="#FAF0D6" stroke="#A6B8CF" stroke-width="3"/>
    <rect x="560" y="500" width="108" height="154" rx="20" fill="#FAF0D6" stroke="#42B4D6" stroke-width="3"/>
    <rect x="680" y="500" width="108" height="154" rx="20" fill="#FAF0D6" stroke="#D86E33" stroke-width="3"/>
    <rect x="800" y="520" width="76" height="116" rx="18" fill="#FAF0D6" stroke="#C89A4B" stroke-width="3"/>
    <rect x="858" y="520" width="76" height="116" rx="18" fill="#FAF0D6" stroke="#C89A4B" stroke-width="3"/>
    <text x="355" y="582" fill="#E2A93B" font-family="Georgia, serif" font-size="40" font-weight="700">●</text>
    <text x="474" y="582" fill="#A6B8CF" font-family="Georgia, serif" font-size="40" font-weight="700">◐</text>
    <text x="594" y="582" fill="#42B4D6" font-family="Georgia, serif" font-size="40" font-weight="700">▧</text>
    <text x="714" y="582" fill="#D86E33" font-family="Georgia, serif" font-size="40" font-weight="700">✦</text>
    <text x="826" y="587" fill="#C89A4B" font-family="Georgia, serif" font-size="30" font-weight="700">♞</text>
    <text x="884" y="587" fill="#C89A4B" font-family="Georgia, serif" font-size="30" font-weight="700">♞</text>
  </g>

  <rect x="1004" y="156" width="248" height="536" rx="28" fill="url(#panel)" stroke="#F0CC88" stroke-opacity="0.28" stroke-width="2"/>
  <text x="1028" y="198" fill="#F3DDB1" font-family="Georgia, serif" font-size="24" font-weight="700">Ledger</text>

  <rect x="1022" y="220" width="212" height="74" rx="18" fill="#312522" fill-opacity="0.84" stroke="#F1DDB5" stroke-opacity="0.24" stroke-width="2"/>
  <text x="1040" y="246" fill="#F8EBD1" font-family="Trebuchet MS, sans-serif" font-size="17" font-weight="700">You</text>
  <text x="1040" y="274" fill="#F0C96D" font-family="Georgia, serif" font-size="24" font-weight="700">18 gold</text>

  <rect x="1022" y="308" width="212" height="74" rx="18" fill="#2D6761" fill-opacity="0.84" stroke="#92E0D0" stroke-opacity="0.3" stroke-width="2"/>
  <text x="1040" y="334" fill="#F8EBD1" font-family="Trebuchet MS, sans-serif" font-size="17" font-weight="700">Hard Trader Bot</text>
  <text x="1040" y="362" fill="#F0C96D" font-family="Georgia, serif" font-size="24" font-weight="700">14 gold</text>

  <text x="1028" y="420" fill="#F3DDB1" font-family="Georgia, serif" font-size="22" font-weight="700">Recent Moves</text>
  <text x="1030" y="450" fill="#D7C4A4" font-family="Trebuchet MS, sans-serif" font-size="12">• Hard Trader Bot took one gold card.</text>
  <text x="1030" y="474" fill="#D7C4A4" font-family="Trebuchet MS, sans-serif" font-size="12">• You sold 3 cloth for 8 gold.</text>
  <text x="1030" y="498" fill="#D7C4A4" font-family="Trebuchet MS, sans-serif" font-size="12">• Hard Trader Bot exchanged 2 cards.</text>
  <text x="1030" y="522" fill="#D7C4A4" font-family="Trebuchet MS, sans-serif" font-size="12">• Settings menu includes music and SFX.</text>

  <rect x="874" y="58" width="328" height="248" rx="26" fill="#211612" fill-opacity="0.96" stroke="#F0CC88" stroke-opacity="0.3" stroke-width="2"/>
  <text x="896" y="95" fill="#F3DDB1" font-family="Georgia, serif" font-size="24" font-weight="700">Settings</text>
  <text x="896" y="126" fill="#F1DDB5" font-family="Trebuchet MS, sans-serif" font-size="14" font-weight="700">Music: On · 50%</text>
  <rect x="896" y="138" width="90" height="34" rx="12" fill="#9F3B39"/>
  <rect x="996" y="138" width="90" height="34" rx="12" fill="#382C28"/>
  <rect x="1096" y="138" width="90" height="34" rx="12" fill="#382C28"/>
  <text x="924" y="160" fill="#FFEFEA" font-family="Trebuchet MS, sans-serif" font-size="12" font-weight="700">Disable</text>
  <text x="1026" y="160" fill="#F1E1C7" font-family="Trebuchet MS, sans-serif" font-size="12" font-weight="700">Vol -</text>
  <text x="1126" y="160" fill="#F1E1C7" font-family="Trebuchet MS, sans-serif" font-size="12" font-weight="700">Vol +</text>

  <text x="896" y="198" fill="#F1DDB5" font-family="Trebuchet MS, sans-serif" font-size="14" font-weight="700">SFX: On · 75%</text>
  <rect x="896" y="210" width="90" height="34" rx="12" fill="#9F3B39"/>
  <rect x="996" y="210" width="90" height="34" rx="12" fill="#382C28"/>
  <rect x="1096" y="210" width="90" height="34" rx="12" fill="#382C28"/>
  <text x="924" y="232" fill="#FFEFEA" font-family="Trebuchet MS, sans-serif" font-size="12" font-weight="700">Disable</text>
  <text x="1026" y="232" fill="#F1E1C7" font-family="Trebuchet MS, sans-serif" font-size="12" font-weight="700">Vol -</text>
  <text x="1126" y="232" fill="#F1E1C7" font-family="Trebuchet MS, sans-serif" font-size="12" font-weight="700">Vol +</text>

  <text x="896" y="274" fill="#D7C4A4" font-family="Trebuchet MS, sans-serif" font-size="12">Single-player bot match • prompt-only code experiment</text>
</svg>
